 0
SECTION
 2
ENTITIES
  0
3DFACE
 8
Material1
10
0.716331551271456
20
0.607144353676781
30
1.3
11
0.596331551271456
21
0.607144353676781
31
0.0
12
0.716331551271456
22
0.607144353676781
32
0.0
13
0.716331551271456
23
0.607144353676781
33
0.0
70
1
  0
3DFACE
 8
Material1
10
0.596331551271456
20
0.607144353676781
30
0.0
11
0.716331551271456
21
0.607144353676781
31
1.3
12
0.586331551271456
22
0.607144353676781
32
0.0
13
0.586331551271456
23
0.607144353676781
33
0.0
70
3
  0
3DFACE
 8
Material1
10
0.586331551271456
20
0.607144353676781
30
0.0
11
0.716331551271456
21
0.607144353676781
31
1.3
12
0.466331551271456
22
0.607144353676781
32
0.0
13
0.466331551271456
23
0.607144353676781
33
0.0
70
3
  0
3DFACE
 8
Material1
10
0.466331551271456
20
0.607144353676781
30
0.0
11
0.716331551271456
21
0.607144353676781
31
1.3
12
0.466331551271456
22
0.607144353676781
32
1.3
13
0.466331551271456
23
0.607144353676781
33
1.3
70
1
  0
3DFACE
 8
Material1
10
0.716331551271456
20
0.727144353676781
30
0.0
11
0.716331551271456
21
0.607144353676781
31
1.3
12
0.716331551271456
22
0.607144353676781
32
0.0
13
0.716331551271456
23
0.607144353676781
33
0.0
70
1
  0
3DFACE
 8
Material1
10
0.716331551271456
20
0.607144353676781
30
1.3
11
0.716331551271456
21
0.727144353676781
31
0.0
12
0.716331551271456
22
0.857144353676781
32
1.3
13
0.716331551271456
23
0.857144353676781
33
1.3
70
3
  0
3DFACE
 8
Material1
10
0.716331551271456
20
0.857144353676781
30
1.3
11
0.716331551271456
21
0.727144353676781
31
0.0
12
0.716331551271456
22
0.737144353676781
32
0.0
13
0.716331551271456
23
0.737144353676781
33
0.0
70
13
  0
3DFACE
 8
Material1
10
0.716331551271456
20
0.857144353676781
30
1.3
11
0.716331551271456
21
0.737144353676781
31
0.0
12
0.716331551271456
22
0.857144353676781
32
0.0
13
0.716331551271456
23
0.857144353676781
33
0.0
70
1
  0
3DFACE
 8
Material1
10
0.466331551271456
20
0.857144353676781
30
1.3
11
0.586331551271456
21
0.857144353676781
31
0.0
12
0.466331551271456
22
0.857144353676781
32
0.0
13
0.466331551271456
23
0.857144353676781
33
0.0
70
1
  0
3DFACE
 8
Material1
10
0.586331551271456
20
0.857144353676781
30
0.0
11
0.466331551271456
21
0.857144353676781
31
1.3
12
0.596331551271456
22
0.857144353676781
32
0.0
13
0.596331551271456
23
0.857144353676781
33
0.0
70
3
  0
3DFACE
 8
Material1
10
0.596331551271456
20
0.857144353676781
30
0.0
11
0.466331551271456
21
0.857144353676781
31
1.3
12
0.716331551271456
22
0.857144353676781
32
0.0
13
0.716331551271456
23
0.857144353676781
33
0.0
70
3
  0
3DFACE
 8
Material1
10
0.716331551271456
20
0.857144353676781
30
0.0
11
0.466331551271456
21
0.857144353676781
31
1.3
12
0.716331551271456
22
0.857144353676781
32
1.3
13
0.716331551271456
23
0.857144353676781
33
1.3
70
1
  0
3DFACE
 8
Material1
10
0.466331551271456
20
0.857144353676781
30
1.3
11
0.466331551271456
21
0.607144353676781
31
0.0
12
0.466331551271456
22
0.607144353676781
32
1.3
13
0.466331551271456
23
0.607144353676781
33
1.3
70
1
  0
3DFACE
 8
Material1
10
0.466331551271456
20
0.607144353676781
30
0.0
11
0.466331551271456
21
0.857144353676781
31
1.3
12
0.466331551271456
22
0.727144353676781
32
0.0
13
0.466331551271456
23
0.727144353676781
33
0.0
70
3
  0
3DFACE
 8
Material1
10
0.466331551271456
20
0.727144353676781
30
0.0
11
0.466331551271456
21
0.857144353676781
31
1.3
12
0.466331551271456
22
0.737144353676781
32
0.0
13
0.466331551271456
23
0.737144353676781
33
0.0
70
3
  0
3DFACE
 8
Material1
10
0.466331551271456
20
0.737144353676781
30
0.0
11
0.466331551271456
21
0.857144353676781
31
1.3
12
0.466331551271456
22
0.857144353676781
32
0.0
13
0.466331551271456
23
0.857144353676781
33
0.0
70
1
  0
3DFACE
 8
[Color_005]
10
0.596331551271456
20
0.727144353676781
30
0.0
11
0.586331551271456
21
0.607144353676781
31
0.0
12
0.586331551271456
22
0.727144353676781
32
0.0
13
0.586331551271456
23
0.727144353676781
33
0.0
70
1
  0
3DFACE
 8
[Color_005]
10
0.586331551271456
20
0.607144353676781
30
0.0
11
0.596331551271456
21
0.727144353676781
31
0.0
12
0.596331551271456
22
0.607144353676781
32
0.0
13
0.596331551271456
23
0.607144353676781
33
0.0
70
1
  0
3DFACE
 8
[Color_005]
10
0.586331551271456
20
0.737144353676781
30
0.0
11
0.466331551271456
21
0.727144353676781
31
0.0
12
0.466331551271456
22
0.737144353676781
32
0.0
13
0.466331551271456
23
0.737144353676781
33
0.0
70
1
  0
3DFACE
 8
[Color_005]
10
0.466331551271456
20
0.727144353676781
30
0.0
11
0.586331551271456
21
0.737144353676781
31
0.0
12
0.586331551271456
22
0.727144353676781
32
0.0
13
0.586331551271456
23
0.727144353676781
33
0.0
70
1
  0
3DFACE
 8
[Color_005]
10
0.716331551271456
20
0.737144353676781
30
0.0
11
0.596331551271456
21
0.727144353676781
31
0.0
12
0.596331551271456
22
0.737144353676781
32
0.0
13
0.596331551271456
23
0.737144353676781
33
0.0
70
1
  0
3DFACE
 8
[Color_005]
10
0.596331551271456
20
0.727144353676781
30
0.0
11
0.716331551271456
21
0.737144353676781
31
0.0
12
0.716331551271456
22
0.727144353676781
32
0.0
13
0.716331551271456
23
0.727144353676781
33
0.0
70
1
  0
3DFACE
 8
[Color_005]
10
0.596331551271456
20
0.857144353676781
30
0.0
11
0.586331551271456
21
0.737144353676781
31
0.0
12
0.586331551271456
22
0.857144353676781
32
0.0
13
0.586331551271456
23
0.857144353676781
33
0.0
70
1
  0
3DFACE
 8
[Color_005]
10
0.586331551271456
20
0.737144353676781
30
0.0
11
0.596331551271456
21
0.857144353676781
31
0.0
12
0.596331551271456
22
0.737144353676781
32
0.0
13
0.596331551271456
23
0.737144353676781
33
0.0
70
1
  0
3DFACE
 8
[Color_005]
10
0.596331551271456
20
0.737144353676781
30
-0.23
11
0.586331551271456
21
0.727144353676781
31
-0.23
12
0.586331551271456
22
0.737144353676781
32
-0.23
13
0.586331551271456
23
0.737144353676781
33
-0.23
70
1
  0
3DFACE
 8
[Color_005]
10
0.586331551271456
20
0.727144353676781
30
-0.23
11
0.596331551271456
21
0.737144353676781
31
-0.23
12
0.596331551271456
22
0.727144353676781
32
-0.23
13
0.596331551271456
23
0.727144353676781
33
-0.23
70
1
  0
3DFACE
 8
[Color_005]
10
0.586331551271456
20
0.737144353676781
30
0.0
11
0.596331551271456
21
0.737144353676781
31
-0.23
12
0.586331551271456
22
0.737144353676781
32
-0.23
13
0.586331551271456
23
0.737144353676781
33
-0.23
70
1
  0
3DFACE
 8
[Color_005]
10
0.596331551271456
20
0.737144353676781
30
-0.23
11
0.586331551271456
21
0.737144353676781
31
0.0
12
0.596331551271456
22
0.737144353676781
32
0.0
13
0.596331551271456
23
0.737144353676781
33
0.0
70
1
  0
3DFACE
 8
[Color_005]
10
0.596331551271456
20
0.737144353676781
30
-0.23
11
0.596331551271456
21
0.727144353676781
31
0.0
12
0.596331551271456
22
0.727144353676781
32
-0.23
13
0.596331551271456
23
0.727144353676781
33
-0.23
70
1
  0
3DFACE
 8
[Color_005]
10
0.596331551271456
20
0.727144353676781
30
0.0
11
0.596331551271456
21
0.737144353676781
31
-0.23
12
0.596331551271456
22
0.737144353676781
32
0.0
13
0.596331551271456
23
0.737144353676781
33
0.0
70
1
  0
3DFACE
 8
[Color_005]
10
0.596331551271456
20
0.727144353676781
30
0.0
11
0.586331551271456
21
0.727144353676781
31
-0.23
12
0.596331551271456
22
0.727144353676781
32
-0.23
13
0.596331551271456
23
0.727144353676781
33
-0.23
70
1
  0
3DFACE
 8
[Color_005]
10
0.586331551271456
20
0.727144353676781
30
-0.23
11
0.596331551271456
21
0.727144353676781
31
0.0
12
0.586331551271456
22
0.727144353676781
32
0.0
13
0.586331551271456
23
0.727144353676781
33
0.0
70
1
  0
3DFACE
 8
[Color_005]
10
0.586331551271456
20
0.737144353676781
30
0.0
11
0.586331551271456
21
0.727144353676781
31
-0.23
12
0.586331551271456
22
0.727144353676781
32
0.0
13
0.586331551271456
23
0.727144353676781
33
0.0
70
1
  0
3DFACE
 8
[Color_005]
10
0.586331551271456
20
0.727144353676781
30
-0.23
11
0.586331551271456
21
0.737144353676781
31
0.0
12
0.586331551271456
22
0.737144353676781
32
-0.23
13
0.586331551271456
23
0.737144353676781
33
-0.23
70
1
  0
3DFACE
 8
[Color_005]
10
0.466331551271456
20
0.607144353676781
30
-0.23
11
0.586331551271456
21
0.727144353676781
31
-0.23
12
0.466331551271456
22
0.857144353676781
32
-0.23
13
0.466331551271456
23
0.857144353676781
33
-0.23
70
3
  0
3DFACE
 8
[Color_005]
10
0.586331551271456
20
0.727144353676781
30
-0.23
11
0.466331551271456
21
0.607144353676781
31
-0.23
12
0.716331551271456
22
0.607144353676781
32
-0.23
13
0.716331551271456
23
0.607144353676781
33
-0.23
70
13
  0
3DFACE
 8
[Color_005]
10
0.586331551271456
20
0.727144353676781
30
-0.23
11
0.716331551271456
21
0.607144353676781
31
-0.23
12
0.596331551271456
22
0.727144353676781
32
-0.23
13
0.596331551271456
23
0.727144353676781
33
-0.23
70
3
  0
3DFACE
 8
[Color_005]
10
0.466331551271456
20
0.857144353676781
30
-0.23
11
0.586331551271456
21
0.737144353676781
31
-0.23
12
0.716331551271456
22
0.857144353676781
32
-0.23
13
0.716331551271456
23
0.857144353676781
33
-0.23
70
3
  0
3DFACE
 8
[Color_005]
10
0.586331551271456
20
0.737144353676781
30
-0.23
11
0.466331551271456
21
0.857144353676781
31
-0.23
12
0.586331551271456
22
0.727144353676781
32
-0.23
13
0.586331551271456
23
0.727144353676781
33
-0.23
70
3
  0
3DFACE
 8
[Color_005]
10
0.716331551271456
20
0.857144353676781
30
-0.23
11
0.586331551271456
21
0.737144353676781
31
-0.23
12
0.596331551271456
22
0.737144353676781
32
-0.23
13
0.596331551271456
23
0.737144353676781
33
-0.23
70
13
  0
3DFACE
 8
[Color_005]
10
0.716331551271456
20
0.857144353676781
30
-0.23
11
0.596331551271456
21
0.737144353676781
31
-0.23
12
0.596331551271456
22
0.727144353676781
32
-0.23
13
0.596331551271456
23
0.727144353676781
33
-0.23
70
13
  0
3DFACE
 8
[Color_005]
10
0.716331551271456
20
0.857144353676781
30
-0.23
11
0.596331551271456
21
0.727144353676781
31
-0.23
12
0.716331551271456
22
0.607144353676781
32
-0.23
13
0.716331551271456
23
0.607144353676781
33
-0.23
70
3
  0
3DFACE
 8
[Color_005]
10
0.466331551271456
20
0.857144353676781
30
-0.24
11
0.476331551271456
21
0.847144353676781
31
-0.24
12
0.466331551271456
22
0.607144353676781
32
-0.24
13
0.466331551271456
23
0.607144353676781
33
-0.24
70
3
  0
3DFACE
 8
[Color_005]
10
0.476331551271456
20
0.847144353676781
30
-0.24
11
0.466331551271456
21
0.857144353676781
31
-0.24
12
0.716331551271456
22
0.857144353676781
32
-0.24
13
0.716331551271456
23
0.857144353676781
33
-0.24
70
13
  0
3DFACE
 8
[Color_005]
10
0.476331551271456
20
0.847144353676781
30
-0.24
11
0.716331551271456
21
0.857144353676781
31
-0.24
12
0.486331551271456
22
0.847144353676781
32
-0.24
13
0.486331551271456
23
0.847144353676781
33
-0.24
70
3
  0
3DFACE
 8
[Color_005]
10
0.486331551271456
20
0.847144353676781
30
-0.24
11
0.716331551271456
21
0.857144353676781
31
-0.24
12
0.486331551271456
22
0.837144353676781
32
-0.24
13
0.486331551271456
23
0.837144353676781
33
-0.24
70
3
  0
3DFACE
 8
[Color_005]
10
0.486331551271456
20
0.837144353676781
30
-0.24
11
0.716331551271456
21
0.857144353676781
31
-0.24
12
0.696331551271456
22
0.847144353676781
32
-0.24
13
0.696331551271456
23
0.847144353676781
33
-0.24
70
15
  0
3DFACE
 8
[Color_005]
10
0.486331551271456
20
0.837144353676781
30
-0.24
11
0.696331551271456
21
0.847144353676781
31
-0.24
12
0.486331551271456
22
0.627144353676781
32
-0.24
13
0.486331551271456
23
0.627144353676781
33
-0.24
70
15
  0
3DFACE
 8
[Color_005]
10
0.486331551271456
20
0.627144353676781
30
-0.24
11
0.696331551271456
21
0.847144353676781
31
-0.24
12
0.486331551271456
22
0.617144353676781
32
-0.24
13
0.486331551271456
23
0.617144353676781
33
-0.24
70
3
  0
3DFACE
 8
[Color_005]
10
0.696331551271456
20
0.847144353676781
30
-0.24
11
0.716331551271456
21
0.857144353676781
31
-0.24
12
0.706331551271456
22
0.847144353676781
32
-0.24
13
0.706331551271456
23
0.847144353676781
33
-0.24
70
3
  0
3DFACE
 8
[Color_005]
10
0.706331551271456
20
0.847144353676781
30
-0.24
11
0.716331551271456
21
0.857144353676781
31
-0.24
12
0.706331551271456
22
0.837144353676781
32
-0.24
13
0.706331551271456
23
0.837144353676781
33
-0.24
70
3
  0
3DFACE
 8
[Color_005]
10
0.706331551271456
20
0.837144353676781
30
-0.24
11
0.716331551271456
21
0.857144353676781
31
-0.24
12
0.706331551271456
22
0.627144353676781
32
-0.24
13
0.706331551271456
23
0.627144353676781
33
-0.24
70
15
  0
3DFACE
 8
[Color_005]
10
0.706331551271456
20
0.627144353676781
30
-0.24
11
0.716331551271456
21
0.857144353676781
31
-0.24
12
0.706331551271456
22
0.617144353676781
32
-0.24
13
0.706331551271456
23
0.617144353676781
33
-0.24
70
3
  0
3DFACE
 8
[Color_005]
10
0.466331551271456
20
0.607144353676781
30
-0.24
11
0.476331551271456
21
0.617144353676781
31
-0.24
12
0.716331551271456
22
0.607144353676781
32
-0.24
13
0.716331551271456
23
0.607144353676781
33
-0.24
70
3
  0
3DFACE
 8
[Color_005]
10
0.476331551271456
20
0.617144353676781
30
-0.24
11
0.466331551271456
21
0.607144353676781
31
-0.24
12
0.476331551271456
22
0.837144353676781
32
-0.24
13
0.476331551271456
23
0.837144353676781
33
-0.24
70
15
  0
3DFACE
 8
[Color_005]
10
0.476331551271456
20
0.837144353676781
30
-0.24
11
0.466331551271456
21
0.607144353676781
31
-0.24
12
0.476331551271456
22
0.847144353676781
32
-0.24
13
0.476331551271456
23
0.847144353676781
33
-0.24
70
3
  0
3DFACE
 8
[Color_005]
10
0.476331551271456
20
0.617144353676781
30
-0.24
11
0.476331551271456
21
0.837144353676781
31
-0.24
12
0.476331551271456
22
0.627144353676781
32
-0.24
13
0.476331551271456
23
0.627144353676781
33
-0.24
70
3
  0
3DFACE
 8
[Color_005]
10
0.716331551271456
20
0.607144353676781
30
-0.24
11
0.476331551271456
21
0.617144353676781
31
-0.24
12
0.486331551271456
22
0.617144353676781
32
-0.24
13
0.486331551271456
23
0.617144353676781
33
-0.24
70
13
  0
3DFACE
 8
[Color_005]
10
0.716331551271456
20
0.607144353676781
30
-0.24
11
0.486331551271456
21
0.617144353676781
31
-0.24
12
0.696331551271456
22
0.617144353676781
32
-0.24
13
0.696331551271456
23
0.617144353676781
33
-0.24
70
15
  0
3DFACE
 8
[Color_005]
10
0.696331551271456
20
0.617144353676781
30
-0.24
11
0.486331551271456
21
0.617144353676781
31
-0.24
12
0.696331551271456
22
0.847144353676781
32
-0.24
13
0.696331551271456
23
0.847144353676781
33
-0.24
70
15
  0
3DFACE
 8
[Color_005]
10
0.696331551271456
20
0.617144353676781
30
-0.24
11
0.696331551271456
21
0.847144353676781
31
-0.24
12
0.696331551271456
22
0.837144353676781
32
-0.24
13
0.696331551271456
23
0.837144353676781
33
-0.24
70
13
  0
3DFACE
 8
[Color_005]
10
0.696331551271456
20
0.617144353676781
30
-0.24
11
0.696331551271456
21
0.837144353676781
31
-0.24
12
0.696331551271456
22
0.627144353676781
32
-0.24
13
0.696331551271456
23
0.627144353676781
33
-0.24
70
3
  0
3DFACE
 8
[Color_005]
10
0.716331551271456
20
0.607144353676781
30
-0.24
11
0.696331551271456
21
0.617144353676781
31
-0.24
12
0.706331551271456
22
0.617144353676781
32
-0.24
13
0.706331551271456
23
0.617144353676781
33
-0.24
70
13
  0
3DFACE
 8
[Color_005]
10
0.716331551271456
20
0.607144353676781
30
-0.24
11
0.706331551271456
21
0.617144353676781
31
-0.24
12
0.716331551271456
22
0.857144353676781
32
-0.24
13
0.716331551271456
23
0.857144353676781
33
-0.24
70
3
  0
3DFACE
 8
[Color_005]
10
0.706331551271456
20
0.837144353676781
30
-0.24
11
0.696331551271456
21
0.627144353676781
31
-0.24
12
0.696331551271456
22
0.837144353676781
32
-0.24
13
0.696331551271456
23
0.837144353676781
33
-0.24
70
3
  0
3DFACE
 8
[Color_005]
10
0.696331551271456
20
0.627144353676781
30
-0.24
11
0.706331551271456
21
0.837144353676781
31
-0.24
12
0.706331551271456
22
0.627144353676781
32
-0.24
13
0.706331551271456
23
0.627144353676781
33
-0.24
70
3
  0
3DFACE
 8
[Color_005]
10
0.486331551271456
20
0.837144353676781
30
-0.24
11
0.476331551271456
21
0.627144353676781
31
-0.24
12
0.476331551271456
22
0.837144353676781
32
-0.24
13
0.476331551271456
23
0.837144353676781
33
-0.24
70
3
  0
3DFACE
 8
[Color_005]
10
0.476331551271456
20
0.627144353676781
30
-0.24
11
0.486331551271456
21
0.837144353676781
31
-0.24
12
0.486331551271456
22
0.627144353676781
32
-0.24
13
0.486331551271456
23
0.627144353676781
33
-0.24
70
3
  0
3DFACE
 8
[Color_005]
10
0.716331551271456
20
0.857144353676781
30
-0.24
11
0.716331551271456
21
0.607144353676781
31
-0.23
12
0.716331551271456
22
0.607144353676781
32
-0.24
13
0.716331551271456
23
0.607144353676781
33
-0.24
70
1
  0
3DFACE
 8
[Color_005]
10
0.716331551271456
20
0.607144353676781
30
-0.23
11
0.716331551271456
21
0.857144353676781
31
-0.24
12
0.716331551271456
22
0.857144353676781
32
-0.23
13
0.716331551271456
23
0.857144353676781
33
-0.23
70
1
  0
3DFACE
 8
[Color_005]
10
0.716331551271456
20
0.607144353676781
30
-0.23
11
0.466331551271456
21
0.607144353676781
31
-0.24
12
0.716331551271456
22
0.607144353676781
32
-0.24
13
0.716331551271456
23
0.607144353676781
33
-0.24
70
1
  0
3DFACE
 8
[Color_005]
10
0.466331551271456
20
0.607144353676781
30
-0.24
11
0.716331551271456
21
0.607144353676781
31
-0.23
12
0.466331551271456
22
0.607144353676781
32
-0.23
13
0.466331551271456
23
0.607144353676781
33
-0.23
70
1
  0
3DFACE
 8
[Color_005]
10
0.466331551271456
20
0.857144353676781
30
-0.23
11
0.466331551271456
21
0.607144353676781
31
-0.24
12
0.466331551271456
22
0.607144353676781
32
-0.23
13
0.466331551271456
23
0.607144353676781
33
-0.23
70
1
  0
3DFACE
 8
[Color_005]
10
0.466331551271456
20
0.607144353676781
30
-0.24
11
0.466331551271456
21
0.857144353676781
31
-0.23
12
0.466331551271456
22
0.857144353676781
32
-0.24
13
0.466331551271456
23
0.857144353676781
33
-0.24
70
1
  0
3DFACE
 8
[Color_005]
10
0.466331551271456
20
0.857144353676781
30
-0.23
11
0.716331551271456
21
0.857144353676781
31
-0.24
12
0.466331551271456
22
0.857144353676781
32
-0.24
13
0.466331551271456
23
0.857144353676781
33
-0.24
70
1
  0
3DFACE
 8
[Color_005]
10
0.716331551271456
20
0.857144353676781
30
-0.24
11
0.466331551271456
21
0.857144353676781
31
-0.23
12
0.716331551271456
22
0.857144353676781
32
-0.23
13
0.716331551271456
23
0.857144353676781
33
-0.23
70
1
  0
3DFACE
 8
[Color_005]
10
0.486331551271456
20
0.627144353676781
30
-0.25
11
0.476331551271456
21
0.617144353676781
31
-0.25
12
0.476331551271456
22
0.627144353676781
32
-0.25
13
0.476331551271456
23
0.627144353676781
33
-0.25
70
1
  0
3DFACE
 8
[Color_005]
10
0.476331551271456
20
0.617144353676781
30
-0.25
11
0.486331551271456
21
0.627144353676781
31
-0.25
12
0.486331551271456
22
0.617144353676781
32
-0.25
13
0.486331551271456
23
0.617144353676781
33
-0.25
70
1
  0
3DFACE
 8
[Color_005]
10
0.486331551271456
20
0.617144353676781
30
-0.24
11
0.476331551271456
21
0.617144353676781
31
-0.25
12
0.486331551271456
22
0.617144353676781
32
-0.25
13
0.486331551271456
23
0.617144353676781
33
-0.25
70
1
  0
3DFACE
 8
[Color_005]
10
0.476331551271456
20
0.617144353676781
30
-0.25
11
0.486331551271456
21
0.617144353676781
31
-0.24
12
0.476331551271456
22
0.617144353676781
32
-0.24
13
0.476331551271456
23
0.617144353676781
33
-0.24
70
1
  0
3DFACE
 8
[Color_005]
10
0.476331551271456
20
0.627144353676781
30
-0.24
11
0.476331551271456
21
0.617144353676781
31
-0.25
12
0.476331551271456
22
0.617144353676781
32
-0.24
13
0.476331551271456
23
0.617144353676781
33
-0.24
70
1
  0
3DFACE
 8
[Color_005]
10
0.476331551271456
20
0.617144353676781
30
-0.25
11
0.476331551271456
21
0.627144353676781
31
-0.24
12
0.476331551271456
22
0.627144353676781
32
-0.25
13
0.476331551271456
23
0.627144353676781
33
-0.25
70
1
  0
3DFACE
 8
[Color_005]
10
0.476331551271456
20
0.627144353676781
30
-0.24
11
0.486331551271456
21
0.627144353676781
31
-0.25
12
0.476331551271456
22
0.627144353676781
32
-0.25
13
0.476331551271456
23
0.627144353676781
33
-0.25
70
1
  0
3DFACE
 8
[Color_005]
10
0.486331551271456
20
0.627144353676781
30
-0.25
11
0.476331551271456
21
0.627144353676781
31
-0.24
12
0.486331551271456
22
0.627144353676781
32
-0.24
13
0.486331551271456
23
0.627144353676781
33
-0.24
70
1
  0
3DFACE
 8
[Color_005]
10
0.486331551271456
20
0.627144353676781
30
-0.25
11
0.486331551271456
21
0.617144353676781
31
-0.24
12
0.486331551271456
22
0.617144353676781
32
-0.25
13
0.486331551271456
23
0.617144353676781
33
-0.25
70
1
  0
3DFACE
 8
[Color_005]
10
0.486331551271456
20
0.617144353676781
30
-0.24
11
0.486331551271456
21
0.627144353676781
31
-0.25
12
0.486331551271456
22
0.627144353676781
32
-0.24
13
0.486331551271456
23
0.627144353676781
33
-0.24
70
1
  0
3DFACE
 8
[Color_005]
10
0.486331551271456
20
0.847144353676781
30
-0.25
11
0.476331551271456
21
0.837144353676781
31
-0.25
12
0.476331551271456
22
0.847144353676781
32
-0.25
13
0.476331551271456
23
0.847144353676781
33
-0.25
70
1
  0
3DFACE
 8
[Color_005]
10
0.476331551271456
20
0.837144353676781
30
-0.25
11
0.486331551271456
21
0.847144353676781
31
-0.25
12
0.486331551271456
22
0.837144353676781
32
-0.25
13
0.486331551271456
23
0.837144353676781
33
-0.25
70
1
  0
3DFACE
 8
[Color_005]
10
0.476331551271456
20
0.847144353676781
30
-0.24
11
0.476331551271456
21
0.837144353676781
31
-0.25
12
0.476331551271456
22
0.837144353676781
32
-0.24
13
0.476331551271456
23
0.837144353676781
33
-0.24
70
1
  0
3DFACE
 8
[Color_005]
10
0.476331551271456
20
0.837144353676781
30
-0.25
11
0.476331551271456
21
0.847144353676781
31
-0.24
12
0.476331551271456
22
0.847144353676781
32
-0.25
13
0.476331551271456
23
0.847144353676781
33
-0.25
70
1
  0
3DFACE
 8
[Color_005]
10
0.476331551271456
20
0.847144353676781
30
-0.24
11
0.486331551271456
21
0.847144353676781
31
-0.25
12
0.476331551271456
22
0.847144353676781
32
-0.25
13
0.476331551271456
23
0.847144353676781
33
-0.25
70
1
  0
3DFACE
 8
[Color_005]
10
0.486331551271456
20
0.847144353676781
30
-0.25
11
0.476331551271456
21
0.847144353676781
31
-0.24
12
0.486331551271456
22
0.847144353676781
32
-0.24
13
0.486331551271456
23
0.847144353676781
33
-0.24
70
1
  0
3DFACE
 8
[Color_005]
10
0.486331551271456
20
0.847144353676781
30
-0.25
11
0.486331551271456
21
0.837144353676781
31
-0.24
12
0.486331551271456
22
0.837144353676781
32
-0.25
13
0.486331551271456
23
0.837144353676781
33
-0.25
70
1
  0
3DFACE
 8
[Color_005]
10
0.486331551271456
20
0.837144353676781
30
-0.24
11
0.486331551271456
21
0.847144353676781
31
-0.25
12
0.486331551271456
22
0.847144353676781
32
-0.24
13
0.486331551271456
23
0.847144353676781
33
-0.24
70
1
  0
3DFACE
 8
[Color_005]
10
0.486331551271456
20
0.837144353676781
30
-0.24
11
0.476331551271456
21
0.837144353676781
31
-0.25
12
0.486331551271456
22
0.837144353676781
32
-0.25
13
0.486331551271456
23
0.837144353676781
33
-0.25
70
1
  0
3DFACE
 8
[Color_005]
10
0.476331551271456
20
0.837144353676781
30
-0.25
11
0.486331551271456
21
0.837144353676781
31
-0.24
12
0.476331551271456
22
0.837144353676781
32
-0.24
13
0.476331551271456
23
0.837144353676781
33
-0.24
70
1
  0
3DFACE
 8
[Color_005]
10
0.706331551271456
20
0.627144353676781
30
-0.25
11
0.696331551271456
21
0.617144353676781
31
-0.25
12
0.696331551271456
22
0.627144353676781
32
-0.25
13
0.696331551271456
23
0.627144353676781
33
-0.25
70
1
  0
3DFACE
 8
[Color_005]
10
0.696331551271456
20
0.617144353676781
30
-0.25
11
0.706331551271456
21
0.627144353676781
31
-0.25
12
0.706331551271456
22
0.617144353676781
32
-0.25
13
0.706331551271456
23
0.617144353676781
33
-0.25
70
1
  0
3DFACE
 8
[Color_005]
10
0.696331551271456
20
0.627144353676781
30
-0.24
11
0.696331551271456
21
0.617144353676781
31
-0.25
12
0.696331551271456
22
0.617144353676781
32
-0.24
13
0.696331551271456
23
0.617144353676781
33
-0.24
70
1
  0
3DFACE
 8
[Color_005]
10
0.696331551271456
20
0.617144353676781
30
-0.25
11
0.696331551271456
21
0.627144353676781
31
-0.24
12
0.696331551271456
22
0.627144353676781
32
-0.25
13
0.696331551271456
23
0.627144353676781
33
-0.25
70
1
  0
3DFACE
 8
[Color_005]
10
0.696331551271456
20
0.627144353676781
30
-0.24
11
0.706331551271456
21
0.627144353676781
31
-0.25
12
0.696331551271456
22
0.627144353676781
32
-0.25
13
0.696331551271456
23
0.627144353676781
33
-0.25
70
1
  0
3DFACE
 8
[Color_005]
10
0.706331551271456
20
0.627144353676781
30
-0.25
11
0.696331551271456
21
0.627144353676781
31
-0.24
12
0.706331551271456
22
0.627144353676781
32
-0.24
13
0.706331551271456
23
0.627144353676781
33
-0.24
70
1
  0
3DFACE
 8
[Color_005]
10
0.706331551271456
20
0.627144353676781
30
-0.25
11
0.706331551271456
21
0.617144353676781
31
-0.24
12
0.706331551271456
22
0.617144353676781
32
-0.25
13
0.706331551271456
23
0.617144353676781
33
-0.25
70
1
  0
3DFACE
 8
[Color_005]
10
0.706331551271456
20
0.617144353676781
30
-0.24
11
0.706331551271456
21
0.627144353676781
31
-0.25
12
0.706331551271456
22
0.627144353676781
32
-0.24
13
0.706331551271456
23
0.627144353676781
33
-0.24
70
1
  0
3DFACE
 8
[Color_005]
10
0.706331551271456
20
0.617144353676781
30
-0.24
11
0.696331551271456
21
0.617144353676781
31
-0.25
12
0.706331551271456
22
0.617144353676781
32
-0.25
13
0.706331551271456
23
0.617144353676781
33
-0.25
70
1
  0
3DFACE
 8
[Color_005]
10
0.696331551271456
20
0.617144353676781
30
-0.25
11
0.706331551271456
21
0.617144353676781
31
-0.24
12
0.696331551271456
22
0.617144353676781
32
-0.24
13
0.696331551271456
23
0.617144353676781
33
-0.24
70
1
  0
3DFACE
 8
[Color_005]
10
0.706331551271456
20
0.847144353676781
30
-0.25
11
0.696331551271456
21
0.837144353676781
31
-0.25
12
0.696331551271456
22
0.847144353676781
32
-0.25
13
0.696331551271456
23
0.847144353676781
33
-0.25
70
1
  0
3DFACE
 8
[Color_005]
10
0.696331551271456
20
0.837144353676781
30
-0.25
11
0.706331551271456
21
0.847144353676781
31
-0.25
12
0.706331551271456
22
0.837144353676781
32
-0.25
13
0.706331551271456
23
0.837144353676781
33
-0.25
70
1
  0
3DFACE
 8
[Color_005]
10
0.696331551271456
20
0.847144353676781
30
-0.24
11
0.706331551271456
21
0.847144353676781
31
-0.25
12
0.696331551271456
22
0.847144353676781
32
-0.25
13
0.696331551271456
23
0.847144353676781
33
-0.25
70
1
  0
3DFACE
 8
[Color_005]
10
0.706331551271456
20
0.847144353676781
30
-0.25
11
0.696331551271456
21
0.847144353676781
31
-0.24
12
0.706331551271456
22
0.847144353676781
32
-0.24
13
0.706331551271456
23
0.847144353676781
33
-0.24
70
1
  0
3DFACE
 8
[Color_005]
10
0.706331551271456
20
0.847144353676781
30
-0.25
11
0.706331551271456
21
0.837144353676781
31
-0.24
12
0.706331551271456
22
0.837144353676781
32
-0.25
13
0.706331551271456
23
0.837144353676781
33
-0.25
70
1
  0
3DFACE
 8
[Color_005]
10
0.706331551271456
20
0.837144353676781
30
-0.24
11
0.706331551271456
21
0.847144353676781
31
-0.25
12
0.706331551271456
22
0.847144353676781
32
-0.24
13
0.706331551271456
23
0.847144353676781
33
-0.24
70
1
  0
3DFACE
 8
[Color_005]
10
0.706331551271456
20
0.837144353676781
30
-0.24
11
0.696331551271456
21
0.837144353676781
31
-0.25
12
0.706331551271456
22
0.837144353676781
32
-0.25
13
0.706331551271456
23
0.837144353676781
33
-0.25
70
1
  0
3DFACE
 8
[Color_005]
10
0.696331551271456
20
0.837144353676781
30
-0.25
11
0.706331551271456
21
0.837144353676781
31
-0.24
12
0.696331551271456
22
0.837144353676781
32
-0.24
13
0.696331551271456
23
0.837144353676781
33
-0.24
70
1
  0
3DFACE
 8
[Color_005]
10
0.696331551271456
20
0.847144353676781
30
-0.24
11
0.696331551271456
21
0.837144353676781
31
-0.25
12
0.696331551271456
22
0.837144353676781
32
-0.24
13
0.696331551271456
23
0.837144353676781
33
-0.24
70
1
  0
3DFACE
 8
[Color_005]
10
0.696331551271456
20
0.837144353676781
30
-0.25
11
0.696331551271456
21
0.847144353676781
31
-0.24
12
0.696331551271456
22
0.847144353676781
32
-0.25
13
0.696331551271456
23
0.847144353676781
33
-0.25
70
1
 0
ENDSEC
 0
EOF
